<svg width="76" height="57" viewBox="0 0 76 57" fill="none" xmlns="http://www.w3.org/2000/svg">
<g clip-path="url(#clip0_203_8)">
<mask id="mask0_203_8" style="mask-type:luminance" maskUnits="userSpaceOnUse" x="0" y="0" width="76" height="57">
<path d="M75.7 0H0V56.25H75.7V0Z" fill="white"/>
</mask>
<g mask="url(#mask0_203_8)">
<path d="M2.78998 48.8C2.78998 45.74 4.94998 42.44 4.94998 42.44C4.94998 42.44 9.61998 35.45 13.01 26.2C13.69 24.34 14.59 21.89 15.29 18.54C15.59 17.1 15.71 16.2 16 14.68C16.17 13.81 16.32 13.07 16.39 12.77C16.84 10.66 17.41 7.98997 18.44 6.03997C20.52 2.10997 24.6 0.699965 24.89 0.599965C27.83 -0.400035 30.42 0.129965 31.23 0.319965C32.19 0.549965 32.97 0.869965 33.59 1.17996C37.71 3.18996 39.64 6.45996 42.29 8.73996C45.84 11.8 49.99 12.48 52.87 12.93C58.01 13.73 61.74 12.6 66.82 14.7C67.57 15.01 68.56 15.48 69.62 16.32C70.36 16.91 72.75 18.96 73.57 22.51C74.18 25.12 73.63 27.25 73.39 28.12C71.76 33.92 66.13 37.02 64.92 37.69C63.16 38.66 62.36 38.74 59.95 40.22C57.55 41.7 55.69 43.33 55.37 43.61C52.18 46.39 45.2 47.35 38.66 48.25C36.6 48.53 32.96 48.95 28.15 50.11C27.36 50.3 26.96 50.4 26.39 50.56C22.69 51.59 19.58 53.08 17.01 54.32C15.77 54.92 15.04 55.3 13.79 55.68C12.74 55.99 11.63 56.32 10.17 56.27C9.53998 56.25 7.29998 56.16 5.65998 54.78C5.10998 54.32 4.37998 53.5 3.78998 52.53C3.70998 52.4 3.63998 52.29 3.59998 52.21C3.59998 52.21 2.79998 50.75 2.79998 48.82L2.78998 48.8Z" fill="#3DAF5B"/>
<path d="M14.4 10.85C15.29 10.25 16.17 10.08 16.65 10.03C16.76 9.98997 16.93 9.93997 17.14 9.88997C18.76 9.48997 20.62 9.67997 21.82 10.3C24.75 11.82 25.21 16.71 24.14 19.9C23.91 20.58 23.63 21.13 23.39 21.53C27.5 20.87 31.61 20.21 35.72 19.55C32.76 15.63 32.76 10.91 35.11 8.44997C36.68 6.79997 38.92 6.57997 39.88 6.53997C40.32 6.50997 43.15 6.32997 45.12 8.37997C47.12 10.45 47.41 13.94 45.66 16.83C45.34 17.49 45.02 18.15 44.71 18.81C46.64 18.88 48.57 18.95 50.5 19.01C52.23 19.6 53.95 20.19 55.68 20.78C54.46 17.57 55.39 14.1 57.79 12.33C60.26 10.51 63.22 11.26 63.65 11.38C64.46 11.62 67.07 12.5 68.15 14.85C69.6 18 67.81 22.78 63.18 25.41C64.16 26.3 65.13 27.18 66.11 28.07C66.72 31.34 67.34 34.61 67.95 37.88C68.74 38.27 69.54 38.65 70.33 39.04C71.15 38.56 71.96 38.09 72.78 37.61C73.78 37.79 74.55 38.57 74.69 39.52C74.83 40.5 74.27 41.35 73.6 41.77C72.64 42.37 71.26 42.17 70.33 41.23C68.38 41.48 66.43 41.73 64.47 41.98C63.81 40.64 63.15 39.1 62.56 37.35C62.16 36.16 61.85 35.03 61.6 33.98C61.03 36.44 60.47 38.91 59.9 41.37C59.33 42.82 58.76 44.28 58.2 45.73C44.65 45.66 31.09 45.59 17.54 45.52C17.59 44.52 17.63 43.53 17.68 42.53L15.36 32.79C14.02 34.97 12.68 37.15 11.34 39.33C6.47002 32.34 4.65002 29.61 4.35002 29.04C4.34002 29.01 4.30002 28.94 4.22002 28.85C3.70002 28.26 2.50002 28.45 1.46002 28.77C0.680024 27.74 0.760024 26.37 1.53002 25.57C2.11002 24.97 3.05002 24.72 3.85002 25.03C4.91002 25.43 5.54002 26.76 5.14002 28.09C6.73002 29.75 8.32002 31.4 9.91002 33.06C10.16 33.26 10.41 33.47 10.66 33.67C11.8 30.4 12.93 27.13 14.07 23.86L16.45 23.93C15.82 23.59 13.41 22.2 12.36 19.23C11.54 16.9 11.84 14.36 12.84 12.62C13.08 12.2 13.52 11.46 14.41 10.85H14.4Z" fill="white"/>
<path d="M40.24 22.3499C38.59 22.3499 36.91 21.5699 35.48 20.1299C34.37 18.9999 33.46 17.5299 32.91 15.9799C32.59 15.0799 32.41 14.1799 32.37 13.3099C32.28 11.2599 32.98 9.29994 34.36 7.77994C35.74 6.25994 37.63 5.37994 39.68 5.27994C40.85 5.22994 42 5.42994 43.08 5.89994C45.8 7.06994 47.57 9.63994 47.71 12.5899C47.82 14.9999 46.82 17.8299 45.15 19.7899C43.81 21.3799 42.19 22.2599 40.48 22.3499C40.4 22.3499 40.32 22.3499 40.24 22.3499ZM40.05 7.31994C39.96 7.31994 39.87 7.31994 39.78 7.31994C38.28 7.38994 36.9 8.03994 35.89 9.14994C34.88 10.2599 34.36 11.6999 34.43 13.1999C34.46 13.8699 34.61 14.5699 34.86 15.2899C35.3 16.5599 36.05 17.7699 36.95 18.6799C38.03 19.7699 39.24 20.3399 40.39 20.2899C41.81 20.2199 42.91 19.2599 43.59 18.4599C44.92 16.8899 45.75 14.5699 45.67 12.6799C45.57 10.5199 44.27 8.63994 42.28 7.77994C41.57 7.46994 40.82 7.31994 40.06 7.31994H40.05Z" fill="#192232"/>
<path d="M19.6 25.2798C18.37 25.2798 17.07 24.8998 15.82 24.1498C14.46 23.3398 13.21 22.1398 12.29 20.7698C11.76 19.9798 11.35 19.1498 11.09 18.3198C10.49 16.3598 10.68 14.2798 11.64 12.4698C12.6 10.6598 14.2 9.31976 16.16 8.71976C17.28 8.36976 18.44 8.28976 19.61 8.46976C22.53 8.92976 24.89 10.9598 25.76 13.7898C26.47 16.0998 26.21 19.0798 25.08 21.4098C24.18 23.2898 22.84 24.5498 21.2 25.0498C20.68 25.2098 20.14 25.2898 19.59 25.2898L19.6 25.2798ZM18.43 10.4298C17.87 10.4298 17.32 10.5098 16.78 10.6798C15.34 11.1198 14.17 12.0998 13.47 13.4198C12.77 14.7498 12.63 16.2698 13.07 17.7098C13.27 18.3498 13.59 18.9898 14.01 19.6298C14.76 20.7498 15.78 21.7298 16.88 22.3898C18.2 23.1698 19.52 23.4198 20.61 23.0798C21.97 22.6598 22.79 21.4498 23.25 20.5098C24.14 18.6598 24.37 16.1998 23.81 14.3898C23.17 12.3198 21.45 10.8298 19.31 10.4998C19.02 10.4598 18.73 10.4298 18.44 10.4298H18.43Z" fill="#192232"/>
<path d="M60.39 26.82C59.52 26.82 58.7 26.64 57.95 26.29C56.39 25.55 55.19 24.02 54.58 21.99C54.13 20.47 54.02 18.74 54.27 17.12C54.41 16.17 54.67 15.29 55.05 14.51C55.93 12.65 57.48 11.26 59.41 10.57C61.34 9.88002 63.43 9.98002 65.28 10.86C66.34 11.36 67.25 12.08 67.99 13.01C69.84 15.32 70.2 18.42 68.93 21.09C67.89 23.27 65.68 25.29 63.28 26.25C62.29 26.65 61.32 26.85 60.4 26.85L60.39 26.82ZM61.98 12.16C61.34 12.16 60.71 12.27 60.09 12.49C58.68 12.99 57.54 14.02 56.9 15.38C56.61 15.99 56.41 16.67 56.3 17.43C56.09 18.76 56.18 20.17 56.55 21.4C56.99 22.87 57.8 23.95 58.83 24.44C60.12 25.05 61.54 24.71 62.51 24.33C64.42 23.57 66.25 21.91 67.06 20.2C67.99 18.25 67.72 15.98 66.37 14.29C65.83 13.62 65.16 13.09 64.38 12.72C63.62 12.36 62.8 12.17 61.98 12.17V12.16Z" fill="#192232"/>
<path d="M62.98 46.82H14.23C13.66 46.82 13.2 46.36 13.2 45.79C13.2 45.22 13.66 44.76 14.23 44.76H62.98C63.55 44.76 64.01 45.22 64.01 45.79C64.01 46.36 63.55 46.82 62.98 46.82Z" fill="#192232"/>
<path d="M10.34 35.3798C10.04 35.3798 9.75998 35.2498 9.55998 35.0198L4.21998 28.8298C3.84998 28.3998 3.89998 27.7498 4.32998 27.3798C4.75998 27.0098 5.40998 27.0598 5.77998 27.4898L9.93998 32.3098L12.87 23.6098C13 23.2198 13.35 22.9498 13.75 22.9098L16.49 22.6698C17.06 22.6198 17.55 23.0398 17.61 23.5998C17.67 24.1598 17.24 24.6598 16.68 24.7198L14.61 24.8998L11.32 34.6698C11.2 35.0198 10.91 35.2798 10.54 35.3498C10.47 35.3598 10.41 35.3698 10.34 35.3698V35.3798Z" fill="#192232"/>
<path d="M23.81 22.79C23.33 22.79 22.9 22.45 22.8 21.95C22.69 21.39 23.06 20.85 23.62 20.75L36.02 18.39C36.57 18.28 37.12 18.65 37.22 19.21C37.33 19.77 36.96 20.31 36.4 20.41L24 22.77C23.94 22.78 23.87 22.79 23.81 22.79Z" fill="#192232"/>
<path d="M30.92 46.0799C30.49 46.0799 30.09 45.8099 29.95 45.3799C27.5 38.0399 26.31 32.6599 26.21 28.4399C26.21 28.1799 26.3 27.9199 26.48 27.7299L34.49 18.8999C34.87 18.4799 35.52 18.4499 35.94 18.8299C36.36 19.2099 36.39 19.8599 36.01 20.2799L28.28 28.7999C28.44 32.7499 29.6 37.8299 31.9 44.7299C32.08 45.2699 31.79 45.8499 31.25 46.0299C31.14 46.0699 31.03 46.0799 30.92 46.0799Z" fill="#192232"/>
<path d="M32.28 46.0798C31.73 46.0798 31.27 45.6398 31.25 45.0898L30.74 29.7198L27.71 30.4598C27.16 30.5898 26.6 30.2598 26.47 29.6998C26.34 29.1498 26.67 28.5898 27.23 28.4598L31.49 27.4198C31.79 27.3498 32.11 27.4198 32.35 27.5998C32.6 27.7898 32.75 28.0798 32.76 28.3798L33.31 45.0098C33.33 45.5798 32.88 46.0498 32.32 46.0698C32.31 46.0698 32.3 46.0698 32.29 46.0698L32.28 46.0798Z" fill="#192232"/>
<path d="M38.4 22.01H33.97C33.4 22.01 32.94 21.5499 32.94 20.9799C32.94 20.4099 33.4 19.95 33.97 19.95H38.4C38.97 19.95 39.43 20.4099 39.43 20.9799C39.43 21.5499 38.97 22.01 38.4 22.01Z" fill="#192232"/>
<path d="M18.46 46.0799C18.08 46.0799 17.72 45.8699 17.54 45.5099C16.19 42.7999 15.27 39.5799 14.69 35.4999L12.12 40.0899C11.95 40.3899 11.64 40.5899 11.3 40.6099C10.95 40.6299 10.62 40.4799 10.41 40.2099L3.14001 30.6599C2.80001 30.2099 2.88001 29.5599 3.34001 29.2199C3.79001 28.8799 4.44001 28.9599 4.78001 29.4199L11.1 37.7199L14.45 31.7299C14.67 31.3399 15.12 31.1299 15.56 31.2299C16 31.3199 16.33 31.6899 16.37 32.1399C16.86 37.4999 17.82 41.4599 19.38 44.5999C19.63 45.1099 19.43 45.7299 18.92 45.9799C18.77 46.0499 18.62 46.0899 18.46 46.0899V46.0799Z" fill="#192232"/>
<path d="M3.12 30.3899C1.4 30.3899 0 28.9899 0 27.2699C0 25.5499 1.4 24.1499 3.12 24.1499C4.84 24.1499 6.24 25.5499 6.24 27.2699C6.24 28.9899 4.84 30.3899 3.12 30.3899ZM3.12 26.2099C2.54 26.2099 2.06 26.6899 2.06 27.2699C2.06 27.8499 2.54 28.3299 3.12 28.3299C3.7 28.3299 4.18 27.8499 4.18 27.2699C4.18 26.6899 3.7 26.2099 3.12 26.2099Z" fill="#192232"/>
<path d="M72.58 42.99C70.86 42.99 69.46 41.59 69.46 39.87C69.46 38.15 70.86 36.75 72.58 36.75C74.3 36.75 75.7 38.15 75.7 39.87C75.7 41.59 74.3 42.99 72.58 42.99ZM72.58 38.81C72 38.81 71.52 39.29 71.52 39.87C71.52 40.45 72 40.93 72.58 40.93C73.16 40.93 73.64 40.45 73.64 39.87C73.64 39.29 73.16 38.81 72.58 38.81Z" fill="#192232"/>
<path d="M42.01 36.6298C40.54 36.6298 39.34 35.4298 39.34 33.9598C39.34 32.4898 40.54 31.2898 42.01 31.2898C43.48 31.2898 44.68 32.4898 44.68 33.9598C44.68 35.4298 43.48 36.6298 42.01 36.6298ZM42.01 33.3398C41.67 33.3398 41.39 33.6198 41.39 33.9598C41.39 34.2998 41.67 34.5798 42.01 34.5798C42.35 34.5798 42.63 34.2998 42.63 33.9598C42.63 33.6198 42.35 33.3398 42.01 33.3398Z" fill="#192232"/>
<path d="M44.58 46.0798C44.58 46.0798 44.55 46.0798 44.53 46.0798C43.96 46.0498 43.52 45.5698 43.55 45.0098L43.96 36.1698C43.7 36.2198 43.43 36.1698 43.2 36.0398C42.92 35.8598 42.74 35.5598 42.72 35.2198L42.62 33.3998C42.6 33.0398 42.78 32.6898 43.08 32.4898L44.16 31.7798L44.43 25.9298C44.45 25.4898 44.75 25.1098 45.17 24.9898C45.59 24.8698 46.05 25.0298 46.3 25.3898L49.24 29.6298C49.4 29.8598 49.46 30.1398 49.4 30.4098C49.35 30.6798 49.19 30.9198 48.96 31.0698L46.16 32.9098V33.0198L52.17 30.4698L46.12 21.7698L42.63 21.6198C42.06 21.5998 41.62 21.1198 41.65 20.5498C41.67 19.9798 42.16 19.5398 42.72 19.5698L46.72 19.7498C47.04 19.7598 47.34 19.9298 47.52 20.1898L54.58 30.3498C54.76 30.5998 54.81 30.9198 54.72 31.2198C54.63 31.5198 54.42 31.7598 54.13 31.8798L46.04 35.3098L45.58 45.1098C45.55 45.6598 45.1 46.0898 44.55 46.0898L44.58 46.0798ZM46.35 29.0498L46.29 30.3698L46.96 29.9298L46.35 29.0498Z" fill="#192232"/>
<path d="M55.01 21.9398L50.41 20.1198H45.39V18.0598H50.61C50.74 18.0598 50.87 18.0798 50.99 18.1298L55.77 20.0198L55.02 21.9298L55.01 21.9398Z" fill="#192232"/>
<path d="M59.56 45.4699L57.68 44.6299C58.95 41.7799 59.93 38.5699 60.68 34.7899C60.77 34.3399 61.14 33.9999 61.6 33.9599C62.05 33.9199 62.48 34.1899 62.65 34.6199L65.03 40.8699L69.32 40.5299L69.2 39.6999L67.7 39.2599C67.33 39.1499 67.06 38.8499 66.98 38.4799L64.87 28.1199L62.13 25.6999L63.49 24.1599L66.49 26.8099C66.66 26.9599 66.77 27.1599 66.82 27.3699L68.88 37.4599L70.42 37.9099C70.81 38.0199 71.09 38.3499 71.15 38.7499L71.52 41.3199C71.56 41.5999 71.48 41.8899 71.31 42.1099C71.14 42.3299 70.87 42.4699 70.59 42.4899L64.45 42.9799C63.99 43.0199 63.57 42.7499 63.41 42.3199L61.96 38.5299C61.31 41.0699 60.52 43.3599 59.58 45.4599L59.56 45.4699Z" fill="#192232"/>
<path d="M46.39 46.0399L44.39 45.5499L44.57 44.8099C45.63 40.4399 46.73 35.9199 46.68 33.9899L48.73 33.9299C48.79 36.1399 47.71 40.5799 46.56 45.2899L46.38 46.0299L46.39 46.0399Z" fill="#192232"/>
</g>
</g>
<defs>
<clipPath id="clip0_203_8">
<rect width="76" height="57" fill="white"/>
</clipPath>
</defs>
</svg>
