<svg width="58" height="72" viewBox="0 0 58 72" fill="none" xmlns="http://www.w3.org/2000/svg">
<g clip-path="url(#clip0_203_32)">
<path d="M48.11 64.2999C41.02 64.0899 38.2 56.8799 29.28 55.9799C28.68 55.9199 28.15 55.8999 27.63 55.8799C22.04 55.6499 20.1 56.7599 15.82 56.7999C13.51 56.8299 11.34 56.8499 8.77001 55.8199C7.63001 55.3599 4.31001 53.9499 2.17001 50.2699C1.70001 49.4599 -0.339991 45.7499 0.750009 41.1799C1.60001 37.5999 3.97001 35.4099 5.21001 34.2499C6.22001 33.3099 6.77001 33.0299 7.91001 32.1899C9.16001 31.2699 13.18 28.3099 15.03 24.9299C17.89 19.7099 14.08 16.2299 17.33 11.0899C18.59 9.09993 20.2 8.00987 21.02 7.46987C25.21 4.69987 29.73 5.17988 31.39 5.35989C39.04 6.15989 43.81 11.6599 44.6 12.5999C50.05 19.0899 50.55 28.0499 50.7 30.8399C50.75 31.7999 50.87 35.2199 51.94 39.7099C52.09 40.3299 52.22 40.8799 52.44 41.6399C53.73 46.0099 56.07 50.4499 56.82 51.8699C57 52.2199 57.44 53.0299 57.7 54.1999C57.74 54.3999 58 55.5099 57.88 56.6699C57.61 59.3899 55.83 61.1499 55.39 61.5899C52.66 64.2999 48.84 64.2999 48.11 64.2799V64.2999Z" fill="#3DAF5B"/>
<path d="M36.01 70.1001L40.81 56.3301H20.54L25.35 70.1001H36.01Z" fill="white"/>
<path d="M36.01 71.16H25.3601C24.9101 71.16 24.5101 70.87 24.3601 70.45L19.5501 56.68C19.4401 56.36 19.4901 56 19.6901 55.71C19.8901 55.42 20.2101 55.26 20.5601 55.26H40.8301C41.1701 55.26 41.5001 55.43 41.7001 55.71C41.9001 55.99 41.9501 56.35 41.8401 56.68L37.0301 70.45C36.8801 70.88 36.4801 71.16 36.0301 71.16H36.01ZM26.1101 69.03H35.26L39.3301 57.38H22.0501L26.1201 69.03H26.1101Z" fill="#192232"/>
<path d="M42.04 51.95H19.31V56.33H42.04V51.95Z" fill="white"/>
<path d="M42.05 57.3899H19.31C18.72 57.3899 18.25 56.9099 18.25 56.3299V51.9499C18.25 51.3599 18.73 50.8899 19.31 50.8899H42.04C42.63 50.8899 43.1 51.3699 43.1 51.9499V56.3299C43.1 56.9199 42.62 57.3899 42.04 57.3899H42.05ZM20.38 55.2599H40.99V53.0099H20.37V55.2599H20.38Z" fill="#192232"/>
<path d="M31.68 52.5799C31.54 52.5799 31.4 52.5499 31.26 52.4899C30.72 52.2599 30.47 51.6399 30.7 51.0999C33.71 44.0299 31.21 39.9099 28.79 35.9199C26.01 31.3399 23.14 26.5999 31.57 18.9999C32.01 18.6099 32.68 18.6399 33.07 19.0799C33.46 19.5199 33.43 20.1899 32.99 20.5799C25.87 26.9999 27.86 30.2799 30.61 34.8199C33.05 38.8499 36.1 43.8699 32.66 51.9399C32.49 52.3399 32.1 52.59 31.68 52.59V52.5799Z" fill="#192232"/>
<path d="M50.15 19.6601C43.51 24.3801 32.44 20.2001 32.44 20.2001C32.44 20.2001 32.14 8.37015 38.78 3.65015C45.42 -1.06985 56.49 3.11011 56.49 3.11011C56.49 3.11011 56.79 14.9401 50.15 19.6601Z" fill="white"/>
<path d="M41.94 22.9799C36.88 22.9799 32.36 21.3099 32.06 21.1999C31.66 21.0499 31.38 20.6699 31.37 20.2299C31.36 19.7199 31.13 7.77984 38.16 2.78984C45.18 -2.20016 56.39 1.94986 56.86 2.11986C57.26 2.26986 57.54 2.64989 57.55 3.08989C57.56 3.59989 57.79 15.5399 50.76 20.5299C48.14 22.3899 44.94 22.9799 41.93 22.9799H41.94ZM33.51 19.4399C35.96 20.2199 44.35 22.4799 49.54 18.7999C54.73 15.1199 55.36 6.44987 55.43 3.87987C52.98 3.09987 44.59 0.839894 39.4 4.52989C34.21 8.20989 33.58 16.8799 33.51 19.4499V19.4399Z" fill="#192232"/>
<path d="M56.49 3.12012C46.96 5.36012 38.36 10.7701 32.44 20.2101L56.49 3.12012Z" fill="white"/>
<path d="M32.43 21.2601C32.24 21.2601 32.04 21.2101 31.87 21.1001C31.37 20.7901 31.22 20.1301 31.53 19.6401C37.19 10.6201 45.73 4.55007 56.24 2.08007C56.81 1.95007 57.38 2.30005 57.52 2.87005C57.65 3.44005 57.3 4.01008 56.73 4.15008C46.78 6.49008 38.69 12.2301 33.33 20.7701C33.13 21.0901 32.78 21.2701 32.43 21.2701V21.2601Z" fill="#192232"/>
<path d="M42.7 44.76C38.25 46.07 33.06 41.77 33.06 41.77C33.06 41.77 35.09 35.34 39.54 34.03C43.99 32.72 49.18 37.02 49.18 37.02C49.18 37.02 47.15 43.45 42.7 44.76Z" fill="white"/>
<path d="M40.91 46.0699C36.64 46.0699 32.57 42.7499 32.38 42.5899C32.05 42.3099 31.91 41.8599 32.04 41.4499C32.13 41.1699 34.3 34.4599 39.23 33.0099C44.17 31.5599 49.62 36.0099 49.85 36.1999C50.18 36.4799 50.32 36.9299 50.19 37.3399C50.1 37.6199 47.93 44.3299 43 45.7799C42.31 45.9799 41.61 46.0699 40.91 46.0699ZM34.32 41.3899C35.72 42.3799 39.34 44.6399 42.39 43.7399C45.45 42.8399 47.27 38.9899 47.9 37.3899C46.5 36.3999 42.88 34.1399 39.83 35.0399C36.77 35.9399 34.95 39.7899 34.32 41.3899Z" fill="#192232"/>
<path d="M49.18 37.0101C43.63 36.4501 37.99 37.7701 33.06 41.7601L49.18 37.0101Z" fill="white"/>
<path d="M33.06 42.8299C32.75 42.8299 32.44 42.6999 32.23 42.4399C31.86 41.9799 31.93 41.3099 32.39 40.9499C37.2 37.0599 43.05 35.3399 49.29 35.9699C49.87 36.0299 50.3 36.5499 50.24 37.1299C50.18 37.7099 49.66 38.1399 49.08 38.0799C43.41 37.5099 38.1 39.0699 33.73 42.5999C33.53 42.7599 33.3 42.84 33.06 42.84V42.8299Z" fill="#192232"/>
<path d="M13.02 32.2701C6.76004 30.4101 3.92004 21.3601 3.92004 21.3601C3.92004 21.3601 11.24 15.3201 17.5 17.1701C23.76 19.0301 26.6 28.0801 26.6 28.0801C26.6 28.0801 19.28 34.1201 13.02 32.2701Z" fill="white"/>
<path d="M15.56 33.69C14.61 33.69 13.65 33.57 12.71 33.29C5.98002 31.3 3.02002 22.07 2.90002 21.68C2.77002 21.27 2.90002 20.82 3.24002 20.54C3.56002 20.28 11.07 14.16 17.8 16.15C24.53 18.15 27.49 27.37 27.61 27.76C27.74 28.17 27.61 28.62 27.27 28.9C27 29.12 21.4 33.69 15.56 33.69ZM5.18003 21.73C5.97003 23.8 8.64002 29.86 13.32 31.25C18 32.64 23.55 29.01 25.34 27.71C24.55 25.64 21.88 19.58 17.2 18.19C12.52 16.8 6.97003 20.43 5.18003 21.73Z" fill="#192232"/>
<path d="M26.6 28.0801C20.47 23.1701 12.8 20.4201 3.91998 21.3501L26.6 28.0801Z" fill="white"/>
<path d="M26.6 29.15C26.37 29.15 26.13 29.07 25.94 28.92C19.59 23.83 12.01 21.58 4.03001 22.42C3.44001 22.48 2.92001 22.0599 2.86001 21.4699C2.80001 20.8899 3.22001 20.36 3.81001 20.3C12.35 19.4 20.47 21.81 27.27 27.25C27.73 27.62 27.8 28.29 27.44 28.74C27.23 29 26.92 29.14 26.61 29.14L26.6 29.15Z" fill="#192232"/>
</g>
<defs>
<clipPath id="clip0_203_32">
<rect width="58" height="72" fill="white"/>
</clipPath>
</defs>
</svg>
