<svg width="70" height="66" viewBox="0 0 70 66" fill="none" xmlns="http://www.w3.org/2000/svg">
<g clip-path="url(#clip0_203_51)">
<path d="M62.6352 55.3666C55.0044 58.6642 48.4352 52.4169 38.5335 55.8973C37.8635 56.1323 37.2893 56.3759 36.7324 56.6021C30.6939 59.1341 29.18 61.2658 24.6642 63.4498C22.2279 64.6244 19.9395 65.7294 16.7028 65.9121C15.2671 65.9904 11.0384 66.1471 6.94898 63.3106C6.04408 62.6841 2.04163 59.7606 0.91921 54.3747C0.0404114 50.1547 1.46737 46.6482 2.20695 44.8123C2.80732 43.3157 3.25977 42.7415 4.05156 41.2884C4.92166 39.6961 7.71467 34.5538 8.0018 30.0554C8.43685 23.1034 2.6681 21.3023 3.57301 14.2371C3.92104 11.4963 5.09568 9.54726 5.69604 8.56405C8.76749 3.54359 13.8053 1.8121 15.65 1.16822C24.116 -1.764 31.9121 1.67289 33.2607 2.29066C42.388 6.50193 47.5216 16.0121 49.8187 20.2582C50.2711 21.1022 50.9933 22.5117 52.2549 24.4085C53.4035 26.1487 56.005 29.7944 60.2076 33.4836C63.7576 36.1113 67.8906 37.8689 69.2305 42.4456C69.4045 43.0373 70.1615 45.8216 69.0304 48.9017C67.4816 53.1304 63.427 55.0359 62.6439 55.3753L62.6352 55.3666Z" fill="#3DAF5B"/>
<path d="M58.3892 5.24902H10.847C9.40542 5.24902 8.23676 6.41768 8.23676 7.85931V60.2913C8.23676 61.7329 9.40542 62.9016 10.847 62.9016H58.3892C59.8308 62.9016 60.9994 61.7329 60.9994 60.2913V7.85931C60.9994 6.41768 59.8308 5.24902 58.3892 5.24902Z" fill="white"/>
<path d="M59.3375 64.0065H9.90732C8.37595 64.0065 7.13171 62.7623 7.13171 61.2309V6.90205C7.13171 5.37068 8.37595 4.12646 9.90732 4.12646H59.3462C60.8776 4.12646 62.1218 5.37068 62.1218 6.90205V61.2309C62.1218 62.7623 60.8776 64.0065 59.3462 64.0065H59.3375ZM9.90732 6.3539C9.60279 6.3539 9.35046 6.60623 9.35046 6.91076V61.2396C9.35046 61.5441 9.60279 61.7965 9.90732 61.7965H59.3462C59.6508 61.7965 59.9031 61.5441 59.9031 61.2396V6.91076C59.9031 6.60623 59.6508 6.3539 59.3462 6.3539H9.90732Z" fill="#192232"/>
<path d="M60.9994 9.42554H8.23676V11.6443H60.9994V9.42554Z" fill="#192232"/>
<path d="M54.0473 19.6231L38.603 19.5535C37.994 19.5535 37.498 19.0488 37.498 18.4398C37.498 17.8307 37.994 17.3347 38.6117 17.3347L54.056 17.4043C54.665 17.4043 55.161 17.909 55.161 18.5181C55.161 19.1271 54.665 19.6231 54.056 19.6231H54.0473Z" fill="#192232"/>
<path d="M54.0473 24.539L38.603 24.4694C37.994 24.4694 37.498 23.9648 37.498 23.3557C37.498 22.7466 37.994 22.2333 38.6117 22.2507L54.056 22.3203C54.665 22.3203 55.161 22.8249 55.161 23.434C55.161 24.0431 54.665 24.539 54.056 24.539H54.0473Z" fill="#192232"/>
<path d="M54.0473 29.4464L38.603 29.3768C37.994 29.3768 37.498 28.8721 37.498 28.263C37.498 27.654 37.994 27.158 38.603 27.158L54.0473 27.2276C54.6563 27.2276 55.1523 27.7323 55.1523 28.3414C55.1523 28.9504 54.6563 29.4464 54.0473 29.4464Z" fill="#192232"/>
<path d="M33.5914 47.4401H14.7625C14.1534 47.4401 13.6575 46.9441 13.6575 46.335C13.6575 45.726 14.1534 45.23 14.7625 45.23H33.6001C34.2092 45.23 34.7051 45.726 34.7051 46.335C34.7051 46.9441 34.2092 47.4401 33.6001 47.4401H33.5914Z" fill="#192232"/>
<path d="M33.5914 52.4952H14.7625C14.1534 52.4952 13.6575 51.9993 13.6575 51.3902C13.6575 50.7812 14.1534 50.2852 14.7625 50.2852H33.6001C34.2092 50.2852 34.7051 50.7812 34.7051 51.3902C34.7051 51.9993 34.2092 52.4952 33.6001 52.4952H33.5914Z" fill="#192232"/>
<path d="M33.5914 57.5506H14.7625C14.1534 57.5506 13.6575 57.0547 13.6575 56.4456C13.6575 55.8365 14.1534 55.3406 14.7625 55.3406H33.6001C34.2092 55.3406 34.7051 55.8365 34.7051 56.4456C34.7051 57.0547 34.2092 57.5506 33.6001 57.5506H33.5914Z" fill="#192232"/>
<path d="M51.8634 34.6062H51.0281C49.6922 34.6062 48.6093 35.6891 48.6093 37.025V37.8603C48.6093 39.1962 49.6922 40.2792 51.0281 40.2792H51.8634C53.1993 40.2792 54.2823 39.1962 54.2823 37.8603V37.025C54.2823 35.6891 53.1993 34.6062 51.8634 34.6062Z" fill="white"/>
<path d="M51.4458 41.3929C49.2705 41.3929 47.5042 39.6266 47.5042 37.4514C47.5042 35.2761 49.2705 33.5098 51.4458 33.5098C53.621 33.5098 55.3872 35.2761 55.3872 37.4514C55.3872 39.6266 53.621 41.3929 51.4458 41.3929ZM51.4458 35.7199C50.4973 35.7199 49.7229 36.4943 49.7229 37.4427C49.7229 38.3911 50.4973 39.1655 51.4458 39.1655C52.3942 39.1655 53.1684 38.3911 53.1684 37.4427C53.1684 36.4943 52.3942 35.7199 51.4458 35.7199Z" fill="#192232"/>
<path d="M42.0487 34.6062H41.2134C39.8775 34.6062 38.7946 35.6891 38.7946 37.025V37.8603C38.7946 39.1962 39.8775 40.2792 41.2134 40.2792H42.0487C43.3846 40.2792 44.4676 39.1962 44.4676 37.8603V37.025C44.4676 35.6891 43.3846 34.6062 42.0487 34.6062Z" fill="white"/>
<path d="M41.6311 41.3929C39.4558 41.3929 37.6895 39.6266 37.6895 37.4514C37.6895 35.2761 39.4558 33.5098 41.6311 33.5098C43.8063 33.5098 45.5726 35.2761 45.5726 37.4514C45.5726 39.6266 43.8063 41.3929 41.6311 41.3929ZM41.6311 35.7199C40.6826 35.7199 39.9083 36.4943 39.9083 37.4427C39.9083 38.3911 40.6826 39.1655 41.6311 39.1655C42.5795 39.1655 43.3538 38.3911 43.3538 37.4427C43.3538 36.4943 42.5795 35.7199 41.6311 35.7199Z" fill="#192232"/>
<path d="M23.8029 34.632C29.2234 34.632 33.6176 30.2379 33.6176 24.8174C33.6176 19.3968 29.2234 15.0027 23.8029 15.0027C18.3824 15.0027 13.9882 19.3968 13.9882 24.8174C13.9882 30.2379 18.3824 34.632 23.8029 34.632Z" fill="white"/>
<path d="M23.8027 35.7373C17.7817 35.7373 12.8743 30.8386 12.8743 24.8089C12.8743 18.7791 17.773 13.8804 23.8027 13.8804C29.8325 13.8804 34.7312 18.7791 34.7312 24.8089C34.7312 30.8386 29.8325 35.7373 23.8027 35.7373ZM23.8027 16.1079C18.9998 16.1079 15.0931 20.0146 15.0931 24.8176C15.0931 29.6205 18.9998 33.5272 23.8027 33.5272C28.6057 33.5272 32.5124 29.6205 32.5124 24.8176C32.5124 20.0146 28.6057 16.1079 23.8027 16.1079Z" fill="#192232"/>
<path d="M28.7033 24.872L23.5598 19.7285L18.4163 24.872L23.5598 30.0155L28.7033 24.872Z" fill="white"/>
<path d="M23.5591 31.1258C23.2632 31.1258 22.9848 31.0126 22.776 30.8038L17.6337 25.6616C17.1987 25.2265 17.1987 24.5304 17.6337 24.0954L22.776 18.9531C23.1936 18.5355 23.9245 18.5355 24.3422 18.9531L29.4844 24.0954C29.6933 24.3042 29.8064 24.5826 29.8064 24.8785C29.8064 25.1743 29.6933 25.4527 29.4844 25.6616L24.3422 30.8038C24.1333 31.0126 23.8549 31.1258 23.5591 31.1258ZM19.983 24.8698L23.5591 28.4459L27.1352 24.8698L23.5591 21.2937L19.983 24.8698Z" fill="#192232"/>
<path d="M22.6891 41.2972H14.893C14.2839 41.2972 13.788 40.8013 13.788 40.1922C13.788 39.5831 14.2839 39.0872 14.893 39.0872H22.6891C23.2981 39.0872 23.7941 39.5831 23.7941 40.1922C23.7941 40.8013 23.2981 41.2972 22.6891 41.2972Z" fill="#192232"/>
<path d="M28.2577 41.2972H26.6828C26.0737 41.2972 25.5778 40.8013 25.5778 40.1922C25.5778 39.5831 26.0737 39.0872 26.6828 39.0872H28.2577C28.8667 39.0872 29.3627 39.5831 29.3627 40.1922C29.3627 40.8013 28.8667 41.2972 28.2577 41.2972Z" fill="#192232"/>
<path d="M33.6609 41.2972H32.086C31.477 41.2972 30.981 40.8013 30.981 40.1922C30.981 39.5831 31.477 39.0872 32.086 39.0872H33.6609C34.27 39.0872 34.7659 39.5831 34.7659 40.1922C34.7659 40.8013 34.27 41.2972 33.6609 41.2972Z" fill="#192232"/>
<path d="M54.3345 45.665H38.2377V56.7065H54.3345V45.665Z" fill="white"/>
<path d="M54.3432 57.8116H38.2464C37.6373 57.8116 37.1414 57.3157 37.1414 56.7066V45.6651C37.1414 45.056 37.6373 44.5601 38.2464 44.5601H54.3432C54.9522 44.5601 55.4482 45.056 55.4482 45.6651V56.7066C55.4482 57.3157 54.9522 57.8116 54.3432 57.8116ZM39.3514 55.5929H53.2382V46.7701H39.3514V55.5929Z" fill="#192232"/>
</g>
<defs>
<clipPath id="clip0_203_51">
<rect width="70" height="66" fill="white"/>
</clipPath>
</defs>
</svg>
